<?xml version="1.0" encoding="utf-8"?>
<!-- Generator: Adobe Illustrator 16.0.0, SVG Export Plug-In . SVG Version: 6.00 Build 0)  -->
<!DOCTYPE svg PUBLIC "-//W3C//DTD SVG 1.1//EN" "http://www.w3.org/Graphics/SVG/1.1/DTD/svg11.dtd">
<svg version="1.1" id="Capa_1" xmlns="http://www.w3.org/2000/svg" xmlns:xlink="http://www.w3.org/1999/xlink" x="0px" y="0px"
	 width="600px" height="600px" viewBox="383 6 600 600" enable-background="new 383 6 600 600" xml:space="preserve">
<rect x="418.648" y="262.924" fill="#E2B5B5" width="533.237" height="175.932"/>
<circle fill="#FFFFFF" cx="685.267" cy="350.89" r="131.496"/>
<g>
	<g>
		<path fill="#E25F59" d="M841.263,208.441c-5.983,0-10.841,4.856-10.841,10.84c0,5.984,4.857,10.84,10.841,10.84
			c5.982,0,10.84-4.856,10.84-10.84C852.103,213.297,847.245,208.441,841.263,208.441z"/>
	</g>
</g>
<g>
	<g>
		<path fill="#E25F59" d="M927.981,165.082H808.938l-34.369-68.739c-5.546-11.09-16.691-17.98-29.088-17.98H620.519
			c-12.397,0-23.543,6.89-29.088,17.981l-34.369,68.738h-21.485v-10.84c0-17.932-14.589-32.52-32.52-32.52h-21.68
			c-17.931,0-32.52,14.588-32.52,32.52v10.84h-10.84c-17.931,0-32.52,14.588-32.52,32.52c0,29.458,0,292.058,0,303.517
			c0,17.931,14.588,32.52,32.52,32.52h489.963c17.931,0,32.52-14.589,32.52-32.52c0-29.457,0-292.058,0-303.517
			C960.501,179.67,945.912,165.082,927.981,165.082z M610.823,106.039c1.849-3.698,5.564-5.997,9.696-5.997H745.48
			c4.133,0,7.849,2.298,9.697,5.997l29.522,59.043H581.3L610.823,106.039z M470.538,154.242c0-5.977,4.863-10.84,10.84-10.84h21.68
			c5.977,0,10.84,4.863,10.84,10.84v10.84h-43.36V154.242z M427.179,273.372H564.25c-14.406,22.504-22.168,48.879-22.168,75.987
			c0,27.11,7.763,53.379,22.167,75.879h-137.07V273.372z M683,230.121c65.184,0,119.238,52.811,119.238,119.239
			c0,66.354-53.979,119.239-119.238,119.239c-65.318,0-119.239-52.945-119.239-119.239C563.761,283.014,617.733,230.121,683,230.121
			z M938.821,501.118c0,5.977-4.863,10.84-10.84,10.84H438.019c-5.977,0-10.84-4.863-10.84-10.84v-54.2h154.172
			c26.487,27.612,63.249,43.36,101.649,43.36c38.407,0,75.173-15.753,101.651-43.36h154.17V501.118z M938.821,425.238H801.75
			c14.406-22.504,22.168-48.77,22.168-75.879s-7.762-53.375-22.168-75.879h137.071V425.238z M938.821,251.801H784.649
			c-26.485-27.612-63.248-43.36-101.649-43.36c-38.405,0-75.171,15.752-101.651,43.36h-154.17v-54.2
			c0-5.977,4.863-10.84,10.84-10.84c9.844,0,474.724,0,489.963,0c5.977,0,10.84,4.863,10.84,10.84V251.801z"/>
	</g>
</g>
<g>
	<g>
		<path fill="#E25F59" d="M715.52,121.722H650.48c-5.987,0-10.84,4.853-10.84,10.84s4.853,10.84,10.84,10.84h65.039
			c5.986,0,10.84-4.853,10.84-10.84S721.506,121.722,715.52,121.722z"/>
	</g>
</g>
<g>
	<g>
		<path fill="#E25F59" d="M683,251.801c-53.794,0-97.559,43.765-97.559,97.559c0,53.794,43.765,97.559,97.559,97.559
			s97.559-43.765,97.559-97.559C780.559,295.566,736.794,251.801,683,251.801z M683,425.238c-41.84,0-75.879-34.039-75.879-75.879
			S641.16,273.48,683,273.48s75.879,34.039,75.879,75.879S724.84,425.238,683,425.238z"/>
	</g>
</g>
<g>
	<g>
		<path fill="#E25F59" d="M683,295.16c-29.886,0-54.199,24.313-54.199,54.199c0,5.987,4.853,10.84,10.84,10.84
			c5.986,0,10.84-4.853,10.84-10.84c0-17.931,14.588-32.52,32.52-32.52c5.986,0,10.84-4.854,10.84-10.84
			C693.84,300.013,688.986,295.16,683,295.16z"/>
	</g>
</g>
<g>
	<g>
		<path fill="#E25F59" d="M906.302,208.441h-21.68c-5.986,0-10.84,4.853-10.84,10.84s4.854,10.84,10.84,10.84h21.68
			c5.985,0,10.84-4.853,10.84-10.84S912.287,208.441,906.302,208.441z"/>
	</g>
</g>
</svg>
