<?xml version="1.0" encoding="utf-8"?>
<!-- Generator: Adobe Illustrator 16.0.0, SVG Export Plug-In . SVG Version: 6.00 Build 0)  -->
<!DOCTYPE svg PUBLIC "-//W3C//DTD SVG 1.1//EN" "http://www.w3.org/Graphics/SVG/1.1/DTD/svg11.dtd">
<svg version="1.1" id="Capa_1" xmlns="http://www.w3.org/2000/svg" xmlns:xlink="http://www.w3.org/1999/xlink" x="0px" y="0px"
	 width="600px" height="600px" viewBox="0 0 600 600" enable-background="new 0 0 600 600" xml:space="preserve">
<path fill="#E2B5B5" d="M352.5,411.167l30.667,8.667L426.5,422.5l37.334-0.666l22.666,2l22-10l8.667-4.667l2-20l-9.333-12.667
	l-24-13.333l-19.334-14l-4.666-13.333c0,0,11.999-8.666,14.666-10s14-26,14-26l7.334-8.667l11.333-10.667l-4-23.333L492.5,241.833
	l-4.666-20.667l-16.667-11.333l-24-8l-19.333,0.667l-27.334-6l-20-12.667V206.5l-6,18l-6,17.333l-4.666,11.333L356.5,262.5
	l-1.333,12.667l4.667,10l7.333,9.333l18.667,8l2.666,18l4,7.334l8,6l6.667,4v8.666l-4.667,8l-22.666,4.667l-18,9.333l-10,17.334
	L352.5,411.167z"/>
<path fill="#E25F59" d="M537.791,103.099H62.209c-21.443,0-38.893,17.45-38.893,38.892v328.018
	c0,21.443,17.449,38.894,38.893,38.894h475.582c21.443,0,38.893-17.449,38.893-38.894V141.991
	C576.684,120.548,559.234,103.099,537.791,103.099z M558.238,470.009c0,11.28-9.168,20.446-20.447,20.446H62.209
	c-11.279,0-20.447-9.166-20.447-20.446V141.991c0-11.279,9.167-20.447,20.447-20.447h475.582c11.279,0,20.447,9.167,20.447,20.447
	V470.009z"/>
<path fill="#E25F59" d="M504.088,360.605l-33.553-17.137V339.9c15.014-8.199,25.575-21.701,31.469-40.25
	c8.938-4.74,14.646-13.973,14.646-24.32v-9.223c0-8.54-3.976-16.462-10.615-21.664c-5.754-34.863-30.084-52.533-72.39-52.533
	c-2.002,0-3.956,0.074-5.865,0.221c-7.969,0.655-19.637-0.037-29.734-6.825c-3.771-2.545-6.622-5.017-8.438-7.314
	c-3.101-3.956-8.312-5.339-12.933-3.439c-4.629,1.9-7.35,6.53-6.769,11.501c0.388,3.45,0.968,7.461,1.845,11.86
	c1.779,8.992,1.779,8.992-0.72,14.369c-0.94,2.039-2.104,4.519-3.469,7.867c-3.053,7.479-5.221,15.669-6.465,24.413
	c-6.549,5.211-10.459,13.087-10.459,21.544v9.223c0,10.348,5.709,19.58,14.646,24.32c5.893,18.557,16.453,32.059,31.468,40.25v3.468
	l-34.761,17.136c-12.691,6.918-20.576,20.198-20.576,34.66v12.22c0,7.405,0,24.735,92.229,24.735
	c92.228,0,92.228-17.33,92.228-24.735V395.9C525.871,380.859,517.525,367.347,504.088,360.605z M507.426,405.3
	c-5.754,3.505-29.162,8.374-73.781,8.374s-68.026-4.869-73.782-8.374v-10.136c0-7.702,4.196-14.785,10.625-18.28l35.571-17.532
	c5.554-2.712,9.131-8.458,9.131-14.646v-16.629l-5.57-2.396c-13.991-6.031-23.084-17.532-27.807-35.176l-1.318-4.917l-4.852-1.512
	c-3.854-1.208-6.559-4.796-6.559-8.743v-9.223c0-3.338,1.909-6.438,4.99-8.08l4.324-2.305l0.508-4.879
	c0.913-8.65,2.841-16.628,5.736-23.702c1.227-2.998,2.27-5.238,3.116-7.074c3.127-6.714,4.263-10.182,3.479-17.293
	c10.846,6.198,23.877,8.835,38.016,7.756c1.43-0.12,2.896-0.175,4.398-0.175c34.531,0,51.391,12.506,54.684,40.562l0.57,4.814
	l4.289,2.27c3.081,1.641,5.009,4.75,5.009,8.106v9.223c0,3.947-2.703,7.535-6.567,8.734l-4.852,1.513l-1.318,4.916
	c-4.722,17.644-13.814,29.144-27.807,35.175l-5.57,2.407v16.703c0,6.171,3.412,11.73,8.891,14.525l34.816,17.791
	c7.175,3.577,11.629,10.79,11.629,18.805V405.3z"/>
<g>
	<path fill="#E25F59" d="M84.524,230.941h92.229c5.1,0,9.223-4.123,9.223-9.223c0-5.1-4.122-9.223-9.223-9.223H84.524
		c-5.101,0-9.224,4.123-9.224,9.223C75.302,226.818,79.424,230.941,84.524,230.941z"/>
	<path fill="#E25F59" d="M213.644,230.941h9.224c5.101,0,9.223-4.123,9.223-9.223c0-5.1-4.122-9.223-9.223-9.223h-9.224
		c-5.101,0-9.223,4.123-9.223,9.223C204.421,226.818,208.543,230.941,213.644,230.941z"/>
	<path fill="#E25F59" d="M93.747,369.283h-9.223c-5.101,0-9.224,4.122-9.224,9.223c0,5.102,4.123,9.225,9.224,9.225h9.223
		c5.101,0,9.224-4.123,9.224-9.225C102.971,373.405,98.848,369.283,93.747,369.283z"/>
	<path fill="#E25F59" d="M149.084,369.283h-18.446c-5.1,0-9.223,4.122-9.223,9.223c0,5.102,4.123,9.225,9.223,9.225h18.446
		c5.101,0,9.223-4.123,9.223-9.225C158.307,373.405,154.185,369.283,149.084,369.283z"/>
	<path fill="#E25F59" d="M195.198,369.283h-9.224c-5.1,0-9.223,4.122-9.223,9.223c0,5.102,4.123,9.225,9.223,9.225h9.224
		c5.101,0,9.223-4.123,9.223-9.225C204.421,373.405,200.299,369.283,195.198,369.283z"/>
	<path fill="#E25F59" d="M250.534,369.283h-18.445c-5.1,0-9.223,4.122-9.223,9.223c0,5.102,4.123,9.225,9.223,9.225h18.445
		c5.1,0,9.223-4.123,9.223-9.225C259.757,373.405,255.634,369.283,250.534,369.283z"/>
	<path fill="#E25F59" d="M280.878,371.957c-1.67,1.744-2.675,4.151-2.675,6.549c0,2.398,1.005,4.796,2.675,6.549
		c1.742,1.659,4.149,2.676,6.548,2.676c2.399,0,4.796-1.017,6.548-2.676c1.661-1.753,2.675-4.149,2.675-6.549
		c0-2.396-1.014-4.805-2.675-6.549C290.469,368.546,284.29,368.546,280.878,371.957z"/>
	<path fill="#E25F59" d="M287.426,267.833H84.524c-5.101,0-9.224,4.123-9.224,9.223s4.123,9.222,9.224,9.222h202.9
		c5.102,0,9.224-4.122,9.224-9.222C296.648,271.955,292.526,267.833,287.426,267.833z"/>
	<path fill="#E25F59" d="M287.426,323.169H84.524c-5.101,0-9.224,4.123-9.224,9.223c0,5.103,4.123,9.224,9.224,9.224h202.9
		c5.102,0,9.224-4.121,9.224-9.224C296.648,327.292,292.526,323.169,287.426,323.169z"/>
</g>
</svg>
