<?xml version="1.0" encoding="utf-8"?>
<!-- Generator: Adobe Illustrator 16.0.0, SVG Export Plug-In . SVG Version: 6.00 Build 0)  -->
<!DOCTYPE svg PUBLIC "-//W3C//DTD SVG 1.1//EN" "http://www.w3.org/Graphics/SVG/1.1/DTD/svg11.dtd">
<svg version="1.1" id="Capa_1" xmlns="http://www.w3.org/2000/svg" xmlns:xlink="http://www.w3.org/1999/xlink" x="0px" y="0px"
	 width="600px" height="600px" viewBox="0 0 600 600" enable-background="new 0 0 600 600" xml:space="preserve">
<path fill="#E5E5E5" d="M559.167,120.5l-20.673-7.333H57.829c0,0-4.663-2.666-15.996,6.667s-8,16.667-8,16.667v67.333h533.333
	v-66.667L559.167,120.5z"/>
<path fill="#B2B2B2" d="M538.791,103.099H63.209c-21.443,0-38.893,17.45-38.893,38.892v328.018
	c0,21.443,17.449,38.894,38.893,38.894h475.582c21.443,0,38.893-17.449,38.893-38.894V141.991
	C577.684,120.548,560.234,103.099,538.791,103.099z M559.238,470.009c0,11.28-9.168,20.446-20.447,20.446H63.209
	c-11.279,0-20.447-9.166-20.447-20.446V141.991c0-11.279,9.167-20.447,20.447-20.447h475.582c11.279,0,20.447,9.167,20.447,20.447
	V470.009z"/>
<g>
	<path fill="#B2B2B2" d="M89.525,271.44h142.229c5.1,0,9.223-4.123,9.223-9.223c0-5.1-4.122-9.223-9.223-9.223H89.525
		c-5.101,0-9.224,4.123-9.224,9.223C80.302,267.317,84.425,271.44,89.525,271.44z"/>
	<path fill="#B2B2B2" d="M268.644,271.44h9.224c5.101,0,9.223-4.123,9.223-9.223c0-5.1-4.122-9.223-9.223-9.223h-9.224
		c-5.101,0-9.223,4.123-9.223,9.223C259.421,267.317,263.543,271.44,268.644,271.44z"/>
</g>
<path fill="#B2B2B2" d="M396.869,146.81H208.424c-5.1,0-9.223,4.123-9.223,9.223c0,5.102,4.123,9.225,9.223,9.225h188.445
	c5.1,0,9.223-4.123,9.223-9.225C406.092,150.933,401.969,146.81,396.869,146.81z"/>
<path fill="#B2B2B2" d="M82.424,141.496c-3.674,3.837-5.887,9.136-5.887,14.409c0,5.277,2.213,10.554,5.887,14.408
	c3.833,3.653,9.127,5.887,14.404,5.887s10.554-2.234,14.408-5.887c3.652-3.854,5.883-9.131,5.883-14.408
	c0-5.273-2.23-10.571-5.883-14.409C103.523,133.993,89.931,133.993,82.424,141.496z"/>
<path fill="#B2B2B2" d="M568.41,195.837H32.438v18.445H568.41V195.837z"/>
<path fill="#B2B2B2" d="M373.426,311.089h-282.9c-5.101,0-9.224,4.123-9.224,9.223c0,5.103,4.123,9.224,9.224,9.224h282.9
	c5.103,0,9.224-4.121,9.224-9.224C382.648,315.212,378.527,311.089,373.426,311.089z"/>
<g>
	<path fill="#B2B2B2" d="M283.858,445.772h142.228c5.1,0,9.224-4.123,9.224-9.224c0-5.1-4.124-9.222-9.224-9.222H283.858
		c-5.101,0-9.224,4.122-9.224,9.222C274.635,441.649,278.758,445.772,283.858,445.772z"/>
	<path fill="#B2B2B2" d="M494.979,445.772h9.223c5.1,0,9.223-4.123,9.223-9.224c0-5.1-4.123-9.222-9.223-9.222h-9.223
		c-5.103,0-9.224,4.122-9.224,9.222C485.755,441.649,489.876,445.772,494.979,445.772z"/>
	<path fill="#B2B2B2" d="M452.212,429.788c-1.67,1.744-2.675,4.152-2.675,6.549c0,2.398,1.005,4.797,2.675,6.549
		c1.742,1.66,4.149,2.677,6.548,2.677c2.399,0,4.796-1.017,6.548-2.677c1.661-1.752,2.675-4.149,2.675-6.549
		c0-2.396-1.014-4.805-2.675-6.549C461.803,426.378,455.624,426.378,452.212,429.788z"/>
</g>
<g>
	<path fill="#B2B2B2" d="M91.858,387.845h92.229c5.1,0,9.223-4.123,9.223-9.223s-4.122-9.223-9.223-9.223H91.858
		c-5.101,0-9.224,4.123-9.224,9.223S86.758,387.845,91.858,387.845z"/>
	<path fill="#B2B2B2" d="M219.979,387.845h9.223c5.1,0,9.223-4.123,9.223-9.223s-4.123-9.223-9.223-9.223h-9.223
		c-5.103,0-9.224,4.123-9.224,9.223S214.876,387.845,219.979,387.845z"/>
	<path fill="#B2B2B2" d="M257.878,371.526c-1.67,1.743-2.675,4.151-2.675,6.549s1.005,4.797,2.675,6.549
		c1.742,1.66,4.149,2.676,6.548,2.676c2.399,0,4.796-1.016,6.548-2.676c1.661-1.752,2.675-4.15,2.675-6.549
		c0-2.396-1.014-4.806-2.675-6.549C267.469,368.116,261.291,368.116,257.878,371.526z"/>
	<path fill="#B2B2B2" d="M298.645,387.512h39.224c5.1,0,9.223-4.123,9.223-9.223s-4.123-9.223-9.223-9.223h-39.224
		c-5.102,0-9.223,4.123-9.223,9.223S293.543,387.512,298.645,387.512z"/>
</g>
</svg>
